<svg xmlns="http://www.w3.org/2000/svg" viewBox="0 0 800 1130"><rect width="800" height="1130" fill="#fbf8f2"/>
  <rect x="40" y="40" width="720" height="1050" fill="none" stroke="#2d5a27" stroke-width="2"/>
  <text x="80" y="150" font-family="serif" font-size="56" font-weight="700" fill="#2d5a27">새빛교회 주보</text>
  <text x="80" y="210" font-family="sans-serif" font-size="26" fill="#6b6255">2026-08-16 · 앞면</text>
  <rect x="80" y="250" width="640" height="2" fill="#2d5a27"/><rect x="80" y="360" width="640" height="14" rx="7" fill="#d7d2c8"/><rect x="80" y="404" width="640" height="14" rx="7" fill="#d7d2c8"/><rect x="80" y="448" width="640" height="14" rx="7" fill="#d7d2c8"/><rect x="80" y="492" width="380" height="14" rx="7" fill="#d7d2c8"/><rect x="80" y="536" width="640" height="14" rx="7" fill="#d7d2c8"/><rect x="80" y="580" width="640" height="14" rx="7" fill="#d7d2c8"/><rect x="80" y="624" width="640" height="14" rx="7" fill="#d7d2c8"/><rect x="80" y="668" width="380" height="14" rx="7" fill="#d7d2c8"/><rect x="80" y="712" width="640" height="14" rx="7" fill="#d7d2c8"/><rect x="80" y="756" width="640" height="14" rx="7" fill="#d7d2c8"/><rect x="80" y="800" width="640" height="14" rx="7" fill="#d7d2c8"/><rect x="80" y="844" width="380" height="14" rx="7" fill="#d7d2c8"/><rect x="80" y="888" width="640" height="14" rx="7" fill="#d7d2c8"/><rect x="80" y="932" width="640" height="14" rx="7" fill="#d7d2c8"/><rect x="80" y="976" width="640" height="14" rx="7" fill="#d7d2c8"/><rect x="80" y="1020" width="380" height="14" rx="7" fill="#d7d2c8"/><rect x="80" y="1064" width="640" height="14" rx="7" fill="#d7d2c8"/><rect x="80" y="1108" width="640" height="14" rx="7" fill="#d7d2c8"/>
  <text x="80" y="1060" font-family="sans-serif" font-size="18" fill="#9a9184">샘플 이미지 · Sample bulletin</text></svg>